<?xml version="1.0" encoding="UTF-8" standalone="no"?>
<!-- Created with Inkscape (http://www.inkscape.org/) -->

<svg
   xmlns:dc="http://purl.org/dc/elements/1.1/"
   xmlns:cc="http://creativecommons.org/ns#"
   xmlns:rdf="http://www.w3.org/1999/02/22-rdf-syntax-ns#"
   xmlns:svg="http://www.w3.org/2000/svg"
   xmlns="http://www.w3.org/2000/svg"
   xmlns:sodipodi="http://sodipodi.sourceforge.net/DTD/sodipodi-0.dtd"
   xmlns:inkscape="http://www.inkscape.org/namespaces/inkscape"
   version="1.1"
   id="svg815"
   xml:space="preserve"
   width="321.26001"
   height="207.87466"
   viewBox="0 0 321.26001 207.87466"
   sodipodi:docname="logo4.svg"
   inkscape:export-filename="C:\Users\Jean-Marc\Code\Laravel\kb-avocats\public\images\logos\path941.png"
   inkscape:export-xdpi="96"
   inkscape:export-ydpi="96"
   inkscape:version="0.92.4 (5da689c313, 2019-01-14)"><metadata
     id="metadata821"><rdf:RDF><cc:Work
         rdf:about=""><dc:format>image/svg+xml</dc:format><dc:type
           rdf:resource="http://purl.org/dc/dcmitype/StillImage" /><dc:title></dc:title></cc:Work></rdf:RDF></metadata><defs
     id="defs819"><clipPath
       clipPathUnits="userSpaceOnUse"
       id="clipPath843"><path
         d="M 0,0 H 240.945 V 155.906 H 0 Z"
         id="path841"
         inkscape:connector-curvature="0" /></clipPath><clipPath
       clipPathUnits="userSpaceOnUse"
       id="clipPath859"><path
         d="M 0,0 H 240.945 V 155.906 H 0 Z"
         id="path857"
         inkscape:connector-curvature="0" /></clipPath><clipPath
       clipPathUnits="userSpaceOnUse"
       id="clipPath903"><path
         d="M 0,0 H 240.945 V 155.906 H 0 Z"
         id="path901"
         inkscape:connector-curvature="0" /></clipPath><clipPath
       clipPathUnits="userSpaceOnUse"
       id="clipPath927"><path
         d="M 0,0 H 240.945 V 155.906 H 0 Z"
         id="path925"
         inkscape:connector-curvature="0" /></clipPath></defs><sodipodi:namedview
     pagecolor="#ffffff"
     bordercolor="#666666"
     borderopacity="1"
     objecttolerance="10"
     gridtolerance="10"
     guidetolerance="10"
     inkscape:pageopacity="0"
     inkscape:pageshadow="2"
     inkscape:window-width="1920"
     inkscape:window-height="1001"
     id="namedview817"
     showgrid="false"
     inkscape:zoom="1.9434788"
     inkscape:cx="42.168723"
     inkscape:cy="85.734679"
     inkscape:window-x="-9"
     inkscape:window-y="-9"
     inkscape:window-maximized="1"
     inkscape:current-layer="g823" /><g
     id="g823"
     inkscape:groupmode="layer"
     inkscape:label="K&amp;B Avocats_Carte de visite_Beffa"
     transform="matrix(1.3333333,0,0,-1.3333333,0,207.87467)"><g
       id="g825"
       transform="translate(27.7526,62.8779)"><path
         d="m 0,0 -2.88,-3.535 v -6.387 h -2.195 v 20.301 h 2.195 v -10.92 l 8.811,10.92 H 8.412 L 1.34,1.654 8.925,-9.922 H 6.501 Z"
         style="fill:#231f20;fill-opacity:1;fill-rule:nonzero;stroke:none"
         id="path827"
         inkscape:connector-curvature="0" /></g><g
       id="g829"
       transform="translate(39.0152,73.2572)"><path
         d="m 0,0 h 2.195 v -18.306 h 9.609 v -1.996 H 0 Z"
         style="fill:#231f20;fill-opacity:1;fill-rule:nonzero;stroke:none"
         id="path831"
         inkscape:connector-curvature="0" /></g><g
       id="g833"
       transform="translate(53.1566,73.2572)"><path
         d="M 0,0 H 11.605 V -1.996 H 2.224 V -8.81 h 7.927 v -1.883 H 2.224 v -7.613 h 9.609 v -1.996 H 0 Z"
         style="fill:#231f20;fill-opacity:1;fill-rule:nonzero;stroke:none"
         id="path835"
         inkscape:connector-curvature="0" /></g><g
       id="g837"><g
         id="g839"
         clip-path="url(#clipPath843)"><g
           id="g845"
           transform="translate(80.4153,72.1168)"><path
             d="m 0,0 -0.457,-1.711 c -1.71,0.656 -3.764,1.226 -5.389,1.226 -1.625,0 -3.079,-0.684 -3.763,-1.653 -0.885,-1.198 -0.913,-2.51 -0.913,-6.873 0,-4.362 0.028,-5.673 0.913,-6.871 0.684,-0.97 2.138,-1.654 3.763,-1.654 2.681,0 4.648,1.654 4.648,4.876 v 2.481 h -4.904 v 1.939 h 7.1 v -4.078 c 0,-5.56 -3.365,-7.014 -6.844,-7.014 -2.68,0 -5.075,1.083 -5.959,2.936 -0.542,1.112 -0.97,2.253 -0.97,7.385 0,5.133 0.399,6.302 0.97,7.386 0.884,1.739 2.994,2.937 5.959,2.937 C -4.534,1.312 -1.597,0.713 0,0"
             style="fill:#231f20;fill-opacity:1;fill-rule:nonzero;stroke:none"
             id="path847"
             inkscape:connector-curvature="0" /></g></g></g><g
       id="g849"
       transform="translate(85.1761,73.2572)"><path
         d="M 0,0 H 11.605 V -1.996 H 2.224 V -8.81 h 7.926 v -1.883 H 2.224 v -7.613 h 9.609 v -1.996 H 0 Z"
         style="fill:#231f20;fill-opacity:1;fill-rule:nonzero;stroke:none"
         id="path851"
         inkscape:connector-curvature="0" /></g><g
       id="g853"><g
         id="g855"
         clip-path="url(#clipPath859)"><g
           id="g861"
           transform="translate(102.2541,62.1941)"><path
             d="m 0,0 v -9.238 h -2.196 v 20.301 h 6.701 c 3.337,0 6.331,-1.454 6.331,-5.503 0,-2.509 -1.74,-4.533 -4.392,-5.247 l 4.563,-9.551 H 8.526 L 4.248,0 Z m 0,1.625 h 3.507 c 2.737,0 5.19,1.426 5.19,4.021 0,2.651 -1.454,3.821 -5.019,3.821 H 0 Z"
             style="fill:#231f20;fill-opacity:1;fill-rule:nonzero;stroke:none"
             id="path863"
             inkscape:connector-curvature="0" /></g><g
           id="g865"
           transform="translate(138.0375,65.3021)"><path
             d="m 0,0 -0.285,-1.425 h -2.823 c 0.086,-0.742 0.114,-1.484 0.114,-2.254 0,-1.71 -0.456,-3.279 -1.34,-4.933 l 3.393,-3.678 H -3.45 l -1.996,2.11 c -1.654,-1.711 -4.134,-2.367 -6.244,-2.367 -3.195,0 -6.531,1.854 -6.531,5.703 0,2.795 2.025,4.62 4.506,5.732 -1.226,1.397 -2.081,2.623 -2.081,4.619 0,2.852 2.281,4.648 5.046,4.648 2.509,0 4.677,-1.368 4.677,-4.163 0,-1.854 -0.913,-3.079 -1.454,-3.992 z m -12.604,-2.338 c -1.853,-0.941 -3.421,-2.339 -3.421,-4.306 0,-2.709 1.996,-4.078 4.392,-4.078 1.796,0 3.735,0.657 4.932,1.939 z M -9.751,0 c 1.054,0.741 1.71,2.224 1.71,3.678 0,1.882 -1.14,2.737 -2.823,2.737 -1.682,0 -2.908,-0.969 -2.908,-2.908 0,-1.568 0.94,-2.908 2.053,-4.106 l 6.102,-6.7 c 0.57,0.969 0.883,2.48 0.883,3.649 0,0.656 -0.057,1.398 -0.199,2.225 h -3.593 z"
             style="fill:#231f20;fill-opacity:1;fill-rule:nonzero;stroke:none"
             id="path867"
             inkscape:connector-curvature="0" /></g><g
           id="g869"
           transform="translate(145.5063,52.9557)"><path
             d="m 0,0 v 20.302 h 6.701 c 3.964,0 5.76,-1.996 5.76,-4.99 0,-2.11 -1.141,-3.65 -3.023,-4.106 2.195,-0.485 3.906,-1.911 3.906,-5.104 C 13.344,2.195 10.864,0 6.787,0 Z m 2.224,18.676 v -6.815 h 2.652 c 3.65,0 5.418,0.827 5.418,3.508 0,2.024 -0.457,3.307 -4.42,3.307 z m 0,-8.611 v -8.44 h 3.821 c 3.992,0 5.075,1.882 5.075,4.391 0,2.31 -0.94,4.049 -5.446,4.049 z"
             style="fill:#231f20;fill-opacity:1;fill-rule:nonzero;stroke:none"
             id="path871"
             inkscape:connector-curvature="0" /></g></g></g><g
       id="g873"
       transform="translate(162.1862,73.2572)"><path
         d="M 0,0 H 11.605 V -1.996 H 2.224 V -8.81 h 7.927 v -1.883 H 2.224 v -7.613 h 9.609 v -1.996 H 0 Z"
         style="fill:#231f20;fill-opacity:1;fill-rule:nonzero;stroke:none"
         id="path875"
         inkscape:connector-curvature="0" /></g><g
       id="g877"
       transform="translate(177.0691,52.9557)"><path
         d="M 0,0 V 20.302 H 11.605 V 18.306 H 2.224 v -6.815 h 7.927 V 9.609 H 2.224 v -9.637 z"
         style="fill:#231f20;fill-opacity:1;fill-rule:nonzero;stroke:none"
         id="path879"
         inkscape:connector-curvature="0" /></g><g
       id="g881"
       transform="translate(191.5813,52.9557)"><path
         d="M 0,0 V 20.302 H 11.606 V 18.306 H 2.225 v -6.815 h 7.927 V 9.609 H 2.225 v -9.637 z"
         style="fill:#231f20;fill-opacity:1;fill-rule:nonzero;stroke:none"
         id="path883"
         inkscape:connector-curvature="0" /></g><g
       id="g885"
       transform="translate(214.3038,57.7173)"><path
         d="m 0,0 h -8.526 l -1.796,-4.762 h -2.196 l 7.442,20.302 h 1.598 L 3.964,-4.762 H 1.768 Z m -7.813,1.882 h 7.157 l -3.621,9.895 z"
         style="fill:#231f20;fill-opacity:1;fill-rule:nonzero;stroke:none"
         id="path887"
         inkscape:connector-curvature="0" /></g><g
       id="g889"
       transform="translate(97.5971,37.3348)"><path
         d="m 0,0 h -3.409 l -0.719,-1.904 h -0.878 l 2.976,8.119 h 0.639 L 1.585,-1.904 H 0.707 Z m -3.124,0.753 h 2.862 L -1.71,4.71 Z"
         style="fill:#a7a5a6;fill-opacity:1;fill-rule:nonzero;stroke:none"
         id="path891"
         inkscape:connector-curvature="0" /></g><g
       id="g893"
       transform="translate(103.356,35.4311)"><path
         d="m 0,0 -2.508,8.119 h 1.025 L 0.32,1.767 2.11,8.119 H 3.125 L 0.616,0 Z"
         style="fill:#a7a5a6;fill-opacity:1;fill-rule:nonzero;stroke:none"
         id="path895"
         inkscape:connector-curvature="0" /></g><g
       id="g897"><g
         id="g899"
         clip-path="url(#clipPath903)"><g
           id="g905"
           transform="translate(109.9825,42.444)"><path
             d="m 0,0 c 0.354,0.695 1.198,1.174 2.384,1.174 1.185,0 2.029,-0.479 2.382,-1.174 0.228,-0.433 0.388,-0.901 0.388,-2.954 0,-2.052 -0.16,-2.52 -0.388,-2.953 -0.353,-0.695 -1.197,-1.175 -2.382,-1.175 -1.186,0 -2.03,0.48 -2.384,1.175 -0.228,0.433 -0.388,0.901 -0.388,2.953 0,2.053 0.16,2.521 0.388,2.954 m 0.878,-5.701 c 0.274,-0.389 0.856,-0.662 1.506,-0.662 0.649,0 1.231,0.273 1.504,0.662 0.354,0.478 0.366,1.002 0.366,2.747 0,1.745 -0.012,2.269 -0.366,2.749 -0.273,0.387 -0.855,0.661 -1.504,0.661 -0.65,0 -1.232,-0.274 -1.506,-0.661 -0.353,-0.48 -0.364,-1.004 -0.364,-2.749 0,-1.745 0.011,-2.269 0.364,-2.747"
             style="fill:#a7a5a6;fill-opacity:1;fill-rule:nonzero;stroke:none"
             id="path907"
             inkscape:connector-curvature="0" /></g><g
           id="g909"
           transform="translate(120.0074,42.2273)"><path
             d="m 0,0 c -0.354,-0.479 -0.365,-0.992 -0.365,-2.737 0,-1.745 0.011,-2.269 0.365,-2.748 0.273,-0.388 0.856,-0.661 1.505,-0.661 0.376,0 1.539,0.205 2.27,0.581 L 3.946,-6.249 C 3.124,-6.637 2.018,-6.865 1.505,-6.865 c -1.186,0 -2.03,0.479 -2.383,1.175 -0.228,0.433 -0.388,0.901 -0.388,2.953 0,2.052 0.16,2.52 0.388,2.954 0.353,0.695 1.197,1.174 2.383,1.174 0.525,0 1.699,-0.239 2.338,-0.525 L 3.661,0.182 C 2.976,0.444 2.155,0.673 1.505,0.673 0.856,0.673 0.273,0.388 0,0"
             style="fill:#a7a5a6;fill-opacity:1;fill-rule:nonzero;stroke:none"
             id="path911"
             inkscape:connector-curvature="0" /></g></g></g><g
       id="g913"
       transform="translate(131.5029,37.3348)"><path
         d="m 0,0 h -3.409 l -0.719,-1.904 h -0.878 l 2.976,8.119 h 0.638 L 1.585,-1.904 H 0.707 Z m -3.124,0.753 h 2.862 L -1.71,4.71 Z"
         style="fill:#a7a5a6;fill-opacity:1;fill-rule:nonzero;stroke:none"
         id="path915"
         inkscape:connector-curvature="0" /></g><g
       id="g917"
       transform="translate(137.6266,35.4311)"><path
         d="m 0,0 h -0.821 v 7.389 h -2.166 v 0.73 H 2.166 V 7.389 L 0,7.389 Z"
         style="fill:#a7a5a6;fill-opacity:1;fill-rule:nonzero;stroke:none"
         id="path919"
         inkscape:connector-curvature="0" /></g><g
       id="g921"><g
         id="g923"
         clip-path="url(#clipPath927)"><g
           id="g929"
           transform="translate(147.7535,43.0936)"><path
             d="m 0,0 -0.228,-0.741 c -0.866,0.308 -1.55,0.513 -2.098,0.513 -0.741,0 -1.539,-0.251 -1.539,-1.026 0,-0.628 0.262,-1.072 1.129,-1.311 l 1.174,-0.331 c 1.3,-0.365 1.916,-1.106 1.916,-2.292 0,-1.369 -1.015,-2.543 -2.817,-2.543 -1.06,0 -1.881,0.228 -2.702,0.593 l 0.33,0.798 c 0.845,-0.422 1.528,-0.627 2.349,-0.627 1.266,0 1.916,0.855 1.916,1.722 0,0.718 -0.33,1.197 -1.083,1.414 l -1.208,0.353 c -1.46,0.422 -1.917,1.038 -1.917,2.201 0,1.083 0.776,1.801 2.441,1.801 C -1.801,0.524 -0.912,0.354 0,0"
             style="fill:#a7a5a6;fill-opacity:1;fill-rule:nonzero;stroke:none"
             id="path931"
             inkscape:connector-curvature="0" /></g><g
           id="g933"
           transform="translate(154.7218,100.9689)"><path
             d="m 0,0 c -0.864,1.32 -1.958,2.56 -3.386,3.579 -0.886,0.633 -4.405,2.605 -4.405,2.643 0,0.184 0.367,0.476 1.102,0.88 0.733,0.403 1.532,0.963 2.396,1.678 0.86,0.717 1.659,1.607 2.393,2.672 0.733,1.063 1.101,2.347 1.101,3.851 0.036,2.057 -0.542,3.837 -1.734,5.341 -1.193,1.505 -2.842,3.206 -3.881,4.13 -1.04,0.925 -2.029,1.802 -2.928,1.031 -0.9,-0.771 -2.487,-2.205 -3.513,-3.234 -1.028,-1.028 -2.028,-2.054 -3.001,-3.082 -0.972,-1.027 -1.733,-1.781 -2.283,-2.257 0,0 -1.07,1.568 -2.067,2.992 -1.123,1.604 -2.688,2.862 -3.385,3.338 -0.657,0.451 -2.554,1.64 -3.884,1.64 -3.627,0 -7.211,-2.739 -11.215,-2.739 -0.844,0 -1.532,0.163 -2.065,0.495 -0.531,0.328 -0.84,0.937 -0.798,1.816 0.037,0.779 0.482,1.764 0.666,2.093 h -0.927 c -0.857,-0.837 -1.416,-1.306 -2.243,-1.846 -2.233,-1.455 -5.237,-0.808 -6.011,-0.457 -2.335,1.06 -3.297,3.514 -3.297,3.514 h -0.424 c -1.25,-1.469 -2.766,-2.928 -4.308,-4.157 -1.54,-1.23 -2.991,-2.504 -4.347,-3.827 -1.36,-1.321 -2.498,-2.779 -3.415,-4.378 -0.917,-1.595 -1.376,-3.53 -1.376,-5.807 0,-1.687 0.202,-3.173 0.606,-4.459 0.403,-1.284 0.953,-2.496 1.65,-3.633 0.698,-1.139 1.523,-2.258 2.478,-3.358 0.955,-1.102 1.982,-2.276 3.085,-3.524 0.364,-0.404 0.622,-0.779 0.77,-1.128 0.144,-0.35 0.22,-0.797 0.22,-1.349 v -0.716 c 0,-0.366 -0.13,-0.551 -0.386,-0.551 -0.256,0 -0.56,0.083 -0.908,0.249 -0.35,0.165 -4.685,2.505 -8.341,2.505 -1.579,0 -3.213,-0.249 -4.898,-0.744 -1.691,-0.495 -3.231,-1.22 -4.625,-2.174 -1.396,-0.954 -2.543,-2.13 -3.443,-3.524 -0.194,-0.303 -0.365,-0.617 -0.517,-0.939 l 0.479,-0.479 c 0.912,1.252 3.19,2.273 6.033,2.273 2.164,0 4.624,-0.936 6.04,-1.951 1.774,-1.271 2.997,-3.034 3.878,-5.124 h 0.466 c 2.748,5.676 6.843,9.419 7.708,10.487 1.704,2.105 2.918,4.955 2.918,7.681 0,4.261 -2.544,7.245 -2.203,8.147 0.917,2.423 3.719,2.99 3.719,2.99 v -26.61 h 0.713 V 0.182 h 2.315 c 0.624,0 1.031,-0.44 1.454,-1.083 0.42,-0.642 0.608,-1.301 0.608,-1.851 v -8.259 c 0,-0.478 0.193,-1.12 0.579,-1.927 0.384,-0.807 0.862,-1.595 1.431,-2.367 0.568,-0.771 2.457,-2.564 3.542,-3.412 h 0.002 l 0.561,0.561 c -0.278,2.546 0.675,4.135 1.58,5.192 1.212,1.411 2.771,2.119 4.679,2.119 2.74,0 4.615,-2.829 7.152,-4.57 3.666,-2.515 7.989,-3.3 13.494,-3.3 6.678,0 11.413,3.426 13.982,7.87 1.051,1.815 1.707,3.816 1.707,6.168 C 1.293,-2.881 0.861,-1.321 0,0 m -13.747,18.641 c 1.109,0 2.185,-0.327 2.901,-0.913 0.716,-0.589 1.368,-1.286 1.955,-2.093 0.587,-0.808 1.073,-1.632 1.459,-2.478 0.384,-0.843 0.578,-1.504 0.578,-1.981 0,-0.441 -0.101,-0.926 -0.303,-1.458 C -7.358,9.185 -7.635,8.688 -7.982,8.23 -8.332,7.772 -8.744,7.385 -9.222,7.074 -9.7,6.763 -10.195,6.607 -10.709,6.607 l -3.027,0.005 c 0,0 -0.011,11.352 -0.011,12.029 M -49.514,1.532 h -2.279 v 9.144 c 0,0 0.16,-0.007 0.521,-0.007 1.67,0 4.51,-3.164 5.232,-6.265 0.303,-1.298 -2.031,-2.872 -3.474,-2.872 m 32.815,-18.23 c -1.392,1.668 -2.902,5.403 -5.102,7.531 -2.078,2.008 -3.985,3.002 -6.799,3.002 -1.58,0 -3.175,-0.268 -4.79,-0.799 -1.598,-0.526 -3.042,-1.277 -4.334,-2.254 -0.077,0.234 -0.151,0.49 -0.223,0.767 -0.146,0.57 -0.276,1.184 -0.384,1.845 -0.111,0.661 -0.259,1.266 -0.441,1.816 -0.258,0.846 -0.642,1.579 -1.156,2.202 -0.516,0.625 -1.121,1.175 -1.817,1.652 -0.697,0.475 -1.441,0.871 -2.229,1.185 -0.791,0.31 -1.571,0.595 -2.341,0.852 0,0 -0.217,0.262 0.661,0.77 5.638,3.267 5.506,4.979 5.506,7.489 0,2.511 -0.706,3.815 -1.267,4.789 -0.831,1.439 -1.836,2.825 -2.973,4.184 h -0.276 c -1.468,-1.395 -3.12,-2.795 -5.009,-4.129 -5.423,-3.826 -8.058,-5.11 -8.918,-4.265 -0.621,0.608 -1.148,1.392 -1.68,2.256 -0.533,0.861 -0.982,1.752 -1.349,2.669 -0.369,0.918 -0.549,1.652 -0.549,2.203 0,0.182 0.018,0.43 0.055,0.743 0.035,0.313 0.109,0.614 0.22,0.908 0.109,0.294 0.254,0.551 0.439,0.771 0.184,0.22 0.404,0.33 0.662,0.33 0.954,-0.513 1.981,-1.01 3.083,-1.486 1.1,-0.477 2.238,-0.716 3.412,-0.716 2.495,0 4.681,0.662 6.551,1.982 1.729,1.22 3.8,3.319 5.222,5.465 -0.083,-0.446 -0.129,-0.945 -0.129,-1.502 0,-1.174 0.304,-2.256 0.909,-3.248 0.605,-0.991 1.375,-1.834 2.312,-2.532 0.936,-0.697 1.972,-1.237 3.11,-1.624 1.138,-0.385 2.239,-0.577 3.304,-0.577 h 1.831 c 3.416,0 8.561,-2.025 8.561,-10.076 0,-6.021 -4.028,-8.778 -7.488,-8.778 -1.892,0 -3.481,0.487 -4.542,1.345 l 0.277,0.276 c 3.558,-0.401 5.94,2.153 5.94,4.983 0,2.869 -2.343,4.979 -4.98,4.979 -2.896,0 -4.978,-2.419 -4.978,-4.954 0,-3.031 1.759,-4.906 2.532,-5.586 0.77,-0.679 1.649,-1.21 2.641,-1.595 0.992,-0.387 2.037,-0.578 3.138,-0.578 2.055,0 3.891,0.468 5.505,1.403 1.615,0.936 2.973,2.148 4.075,3.633 1.1,1.487 1.935,3.156 2.504,5.01 0.569,1.853 0.853,3.698 0.853,5.533 0,0.625 -0.137,3.063 -0.145,3.688 -0.013,1.342 0.963,2.711 1.674,3.328 0.446,0.386 0.887,0.443 1.162,0.443 l 0.008,-36.233 c 0,0 -1.436,-0.073 -2.248,0.9 m 8.908,11.468 c 0,-0.917 -0.037,-2.083 -0.11,-3.496 -0.073,-1.414 -0.274,-2.79 -0.604,-4.13 -0.332,-1.338 -1.024,-2.681 -1.691,-3.376 -0.804,-0.838 -2.171,-1.271 -3.54,-1.337 V 5.277 h 2.368 c 0.77,0 1.384,-0.441 1.843,-1.322 0.46,-0.88 0.817,-1.652 1.074,-2.771 0.257,-1.12 0.431,-2.211 0.524,-3.276 0.089,-1.065 0.136,-1.78 0.136,-2.147 z"
             style="fill:#bdbcbc;fill-opacity:1;fill-rule:nonzero;stroke:none"
             id="path935"
             inkscape:connector-curvature="0" /></g></g></g></g></svg>